<svg xmlns="http://www.w3.org/2000/svg" viewBox="0 0 448 512" width="48" height="48">
        <path
                d="M224.1 141c-63.6 0-114.9 51.3-114.9 114.9s51.3 114.9 114.9 114.9 114.9-51.3 114.9-114.9S287.6 141 224.1 141zm0 186.6c-39.6 0-71.7-32.1-71.7-71.7s32.1-71.7 71.7-71.7 71.7 32.1 71.7 71.7-32.1 71.7-71.7 71.7zm146.4-194.3c0 14.9-12 26.9-26.9 26.9s-26.9-12-26.9-26.9 12-26.9 26.9-26.9 26.9 12 26.9 26.9zm76.1 27.2c-.5-35.3-9.9-66.7-36.3-93.1-26.4-26.4-57.8-35.8-93.1-36.3-36.7-2.1-147.3-2.1-184 0-35.3.5-66.7 9.9-93.1 36.3s-35.8 57.8-36.3 93.1c-2.1 36.7-2.1 147.3 0 184 0 35.3 9.9 66.7 36.3 93.1 26.4 26.4 57.8 35.8 93.1 36.3 36.7 2.1 147.3 2.1 184 0 35.3-.5 66.7-9.9 93.1-36.3 26.4-26.4 35.8-57.8 36.3-93.1 2.1-36.7 2.1-147.3 0-184zM398.8 388c-7.8 19.6-22.9 35.6-42.6 43.5-29.6 11.8-100 9-132.1 9s-102.3 2.6-132.1-9c-19.6-7.8-34.7-23.9-42.6-43.5-11.8-29.6-9-100-9-132.1s-2.6-102.3 9-132.1c7.8-19.6 22.9-35.6 42.6-43.5 29.6-11.8 100-9 132.1-9s102.3-2.6 132.1 9c19.6-7.8 34.7-23.9 42.6-43.5 11.8-29.6 9-100 9-132.1s2.7-102.3-9-132.1z"
                fill="#7B3F00"
        />
</svg>