<svg class="img-fluid" id="outputsvg" xmlns="http://www.w3.org/2000/svg" style="transform: matrix(1.69, 0, 0, 1.69, 0, 0); transform-origin: 50% 50%; cursor: move; max-height: 366.04px; transition: transform 200ms ease-in-out;" width="1912" height="1914" viewBox="0 0 19120 19140"><g id="l1eWg4WMrupz3apBlIkN6jT" fill="rgb(0,0,0)" style="transform: none;"><g style="transform: none;"><path id="pYy9nTHQL" d="M5690 12970 c-214 -9 -709 -42 -870 -60 -244 -26 -606 -88 -733 -126 -95 -28 -218 -94 -270 -143 -60 -56 -133 -153 -142 -186 -18 -68 15 -155 75 -197 74 -54 100 -36 175 116 41 81 114 160 179 193 17 8 40 23 51 33 11 10 36 23 55 29 19 5 62 20 95 32 173 62 620 151 925 184 427 46 1103 62 1935 45 1079 -22 1384 -23 1620 -7 219 16 260 22 250 37 -3 5 -157 9 -343 10 -328 1 -527 4 -957 14 -115 3 -329 8 -475 11 -146 3 -308 8 -360 10 -220 10 -1002 13 -1210 5z"></path><path id="pWp5eNgHd" d="M12279 12976 c-2 -2 -155 -6 -339 -10 -184 -4 -391 -9 -460 -11 -253 -9 -509 -14 -1092 -21 -472 -6 -598 -10 -598 -20 0 -16 47 -21 315 -34 218 -11 442 -10 1525 10 1088 19 1714 0 2130 -66 120 -19 496 -90 575 -108 81 -19 252 -79 317 -112 113 -57 209 -159 279 -297 47 -92 87 -99 161 -29 48 46 50 50 55 114 5 62 4 69 -21 98 -14 17 -26 36 -26 42 0 17 -131 139 -190 177 -31 20 -83 44 -115 55 -33 10 -69 22 -80 27 -22 9 -212 49 -260 54 -16 2 -50 8 -75 14 -25 5 -103 17 -175 25 -71 9 -166 21 -210 26 -131 16 -273 29 -390 35 -60 3 -126 8 -145 10 -90 11 -1170 30 -1181 21z"></path><path id="p1Dwq3XwdP" d="M9364 12956 c-60 -26 -144 -185 -144 -271 0 -42 2 -45 28 -45 38 1 77 36 102 93 11 26 25 47 30 47 5 0 24 -21 42 -47 67 -98 110 -127 162 -107 32 12 30 67 -4 135 -37 74 -129 199 -147 199 -6 0 -17 2 -25 5 -7 2 -27 -2 -44 -9z"></path></g></g><g id="l2aHPW2aBnpbTCm1lC1LN53" fill="rgb(85,83,85)" style="transform: none;"><g style="transform: none;"><path id="pPgDVPFUj" d="M6640 12304 c-56 -24 -128 -101 -150 -162 -56 -150 9 -324 146 -390 36 -17 62 -7 30 12 -118 69 -171 216 -128 354 11 34 32 78 47 98 28 37 95 84 119 84 8 0 18 5 21 10 9 15 -45 11 -85 -6z"></path><path id="pdHuq9QBN" d="M7440 12311 c0 -5 6 -11 13 -13 17 -7 38 2 31 13 -7 12 -44 12 -44 0z"></path><path id="p1EodxrPKV" d="M7906 12295 c7 -29 4 -39 -88 -245 -38 -85 -74 -166 -79 -180 -6 -14 -19 -41 -30 -62 -15 -30 -17 -42 -8 -67 10 -29 29 -43 29 -22 0 5 25 67 56 138 67 154 80 183 97 226 8 17 25 57 39 87 13 30 31 70 39 88 8 18 22 35 32 38 32 10 7 24 -44 24 -48 0 -49 -1 -43 -25z"></path><path id="pgu0Dezqa" d="M8418 12315 c-4 -4 -3 -16 3 -26 12 -24 11 -527 -2 -535 -5 -3 -9 -12 -9 -20 0 -10 12 -14 44 -14 46 0 68 13 41 24 -13 5 -15 43 -13 278 3 273 3 273 68 279 55 5 58 6 20 7 -25 1 -67 5 -95 8 -27 3 -53 3 -57 -1z"></path><path id="p13xND1FdP" d="M8807 12313 c-4 -3 7 -15 24 -25 36 -22 40 -21 28 10 -8 21 -38 30 -52 15z"></path><path id="pSHg8MaR1" d="M9256 12312 c-3 -6 1 -12 9 -16 13 -5 15 -45 15 -276 0 -231 -2 -271 -15 -276 -25 -10 -6 -24 33 -24 45 0 72 14 48 23 -15 6 -16 35 -14 274 2 148 5 275 8 283 4 11 -5 16 -37 18 -22 2 -44 -1 -47 -6z"></path><path id="pkLk8PwO8" d="M9790 12311 c0 -6 5 -13 10 -16 6 -4 10 -107 10 -276 0 -230 -2 -270 -15 -275 -27 -11 -5 -24 40 -24 45 0 67 13 40 24 -13 5 -15 43 -15 258 0 265 3 298 27 298 8 0 11 5 8 10 -8 13 -105 13 -105 1z"></path><path id="pLESQXH7y" d="M10750 12311 c0 -15 38 -20 44 -5 4 10 -2 14 -19 14 -14 0 -25 -4 -25 -9z"></path><path id="pa8ZwF5hW" d="M11205 12310 c-3 -5 -1 -10 4 -10 6 0 11 -6 11 -14 0 -23 -42 -120 -62 -142 -10 -11 -16 -23 -13 -26 4 -3 -25 -75 -64 -161 -81 -178 -87 -198 -71 -226 15 -28 23 -21 45 36 10 26 33 81 52 121 18 39 33 75 33 78 0 4 29 71 65 150 36 79 65 148 65 154 0 5 9 15 20 22 11 7 20 16 20 20 0 12 -98 10 -105 -2z"></path><path id="p18ZNyejA5" d="M11715 12311 c-3 -5 -1 -12 5 -16 14 -8 14 -555 0 -555 -5 0 -10 -4 -10 -10 0 -5 23 -10 50 -10 47 0 63 11 40 25 -14 8 -14 542 0 550 20 12 -1 25 -40 25 -21 0 -41 -4 -45 -9z"></path><path id="pFMLkdcR4" d="M10119 12291 c123 -59 176 -142 175 -278 -1 -70 -5 -87 -30 -131 -32 -55 -69 -89 -132 -122 -49 -26 -53 -33 -14 -24 139 32 232 148 232 288 0 52 -6 75 -31 122 -17 33 -40 69 -52 82 -25 27 -109 68 -157 77 -35 6 -35 6 9 -14z"></path><path id="pkmtTn1Jj" d="M12045 12287 c67 -32 110 -70 142 -124 50 -86 39 -248 -22 -321 -13 -16 -21 -33 -17 -37 4 -5 2 -5 -4 -2 -7 4 -18 0 -25 -9 -7 -9 -36 -27 -64 -40 -46 -22 -47 -23 -15 -18 40 7 131 51 128 62 -1 4 19 27 44 52 38 37 48 55 58 104 16 77 2 150 -43 224 -38 64 -117 118 -187 127 -45 7 -45 7 5 -18z"></path><path id="p16KTnXlF" d="M6976 11854 c-19 -18 -19 -24 -3 -45 12 -16 37 -14 49 5 13 19 9 35 -11 46 -15 7 -23 6 -35 -6z"></path><path id="pkJzGc27O" d="M8105 11331 c-3 -5 3 -16 12 -23 40 -29 43 -57 43 -394 0 -279 -2 -325 -15 -330 -28 -11 -15 -24 24 -24 52 0 74 9 62 24 -6 7 -11 144 -13 331 -3 316 -3 320 -26 358 -25 39 -77 74 -87 58z"></path><path id="p1HXNslkMK" d="M7892 11239 c4 -38 16 -45 43 -25 16 12 18 18 9 33 -6 10 -21 19 -33 21 -20 3 -22 0 -19 -29z"></path><path id="pbCLgUYRI" d="M4480 11150 c0 -5 11 -10 24 -10 14 0 28 5 31 10 4 6 -7 10 -24 10 -17 0 -31 -4 -31 -10z"></path><path id="pVAMbhX0z" d="M4957 11154 c-3 -3 -3 -12 -1 -19 6 -15 -46 -151 -97 -255 -17 -36 -47 -101 -66 -145 -47 -109 -52 -114 -75 -73 -11 18 -16 24 -13 13 46 -136 57 -146 85 -79 12 27 34 78 49 114 16 36 41 94 56 130 54 131 120 272 137 290 9 10 14 21 11 24 -8 8 -78 8 -86 0z"></path><path id="pneDKPRqu" d="M5453 11146 c15 -12 17 -38 17 -284 0 -170 -4 -273 -10 -277 -23 -14 -7 -25 34 -25 42 0 70 14 45 22 -12 4 -15 523 -3 560 5 16 -1 18 -48 18 -46 -1 -51 -2 -35 -14z"></path><path id="pbqKEdhJP" d="M5830 11151 c0 -6 6 -11 14 -11 7 0 26 -10 40 -21 28 -22 28 -22 24 7 -3 26 -7 29 -40 32 -22 2 -38 -1 -38 -7z"></path><path id="prAaVIxR8" d="M6300 11151 c0 -6 5 -13 10 -16 6 -4 10 -107 10 -275 0 -245 -2 -270 -17 -279 -31 -17 24 -23 127 -13 93 9 94 9 28 11 -41 0 -70 6 -74 13 -13 21 -8 528 5 541 21 21 11 27 -39 27 -27 0 -50 -4 -50 -9z"></path><path id="p1Bs2OFc1Q" d="M7165 11150 c-3 -5 1 -10 10 -10 9 0 24 -18 35 -42 21 -48 26 -47 9 1 -8 24 -8 35 1 46 11 13 8 15 -18 15 -17 0 -34 -4 -37 -10z"></path><path id="pFUUXLOuK" d="M7634 11118 c0 -24 -12 -67 -26 -98 -48 -102 -88 -190 -88 -194 0 -3 -16 -39 -35 -80 -19 -42 -35 -82 -35 -90 0 -7 -7 -19 -15 -26 -19 -15 -19 -31 -1 -55 13 -17 14 -17 29 11 39 73 101 207 111 242 19 59 128 288 147 309 22 23 22 23 -32 23 -54 0 -54 0 -55 -42z"></path><path id="pz0VwzfV3" d="M9676 11143 c5 -10 10 -136 12 -279 2 -223 0 -264 -12 -277 -14 -13 -14 -16 0 -21 9 -3 31 -6 51 -6 30 0 34 3 27 18 -5 9 -10 133 -12 274 -2 226 -1 261 14 283 16 25 16 25 -36 25 -46 0 -51 -2 -44 -17z"></path><path id="pUNQP49Ru" d="M10074 11151 c-11 -5 -47 -40 -80 -77 -32 -38 -64 -74 -70 -81 -6 -6 -33 -18 -59 -26 -53 -15 -43 -25 20 -23 42 2 56 12 165 114 62 57 96 66 138 36 25 -18 38 -13 29 10 -14 37 -100 65 -143 47z"></path><path id="pUAeFUDyg" d="M10610 11146 c0 -8 5 -18 10 -21 6 -4 10 -103 10 -265 0 -162 -4 -261 -10 -265 -5 -3 -10 -13 -10 -21 0 -15 62 -20 95 -8 14 6 13 8 -5 21 -19 14 -20 24 -20 266 0 199 3 258 14 280 15 27 15 27 -35 27 -36 0 -49 -4 -49 -14z"></path><path id="pT2CXGka1" d="M10980 11150 c0 -5 13 -10 29 -10 17 0 33 -4 36 -10 12 -20 26 -10 15 10 -8 14 -21 20 -45 20 -19 0 -35 -4 -35 -10z"></path><path id="p1HUjTNdHU" d="M12850 11151 c0 -6 5 -13 10 -16 14 -8 14 -542 0 -550 -19 -12 1 -25 38 -25 46 0 75 16 49 26 -15 6 -17 30 -17 280 0 186 3 274 11 274 5 0 7 5 4 10 -8 13 -95 13 -95 1z"></path><path id="pcScN8FWW" d="M13810 11146 c0 -8 5 -18 10 -21 6 -4 10 -103 10 -265 0 -162 -4 -261 -10 -265 -5 -3 -10 -13 -10 -21 0 -10 11 -14 38 -13 39 0 93 17 61 18 -26 1 -30 36 -29 302 1 208 4 251 16 256 30 11 12 23 -36 23 -37 0 -50 -4 -50 -14z"></path><path id="psRyAs7Ah" d="M14057 11153 c18 -2 50 -2 70 0 21 2 7 4 -32 4 -38 0 -55 -2 -38 -4z"></path><path id="pCQ3BkgO7" d="M14180 11151 c0 -6 13 -11 30 -11 17 0 33 -7 40 -17 9 -16 10 -15 8 7 -3 21 -9 25 -40 28 -22 2 -38 -1 -38 -7z"></path><path id="prxpeJwyn" d="M11869 11104 c69 -79 54 -165 -33 -194 -17 -5 -79 -18 -137 -29 -191 -34 -250 -87 -220 -198 12 -42 68 -103 96 -103 21 0 19 6 -15 39 -55 52 -50 133 10 169 17 11 70 27 118 36 209 41 255 66 267 150 10 61 -14 116 -64 151 -57 39 -67 30 -22 -21z"></path><path id="pElTxo4NQ" d="M13155 11143 c39 -10 125 -73 153 -112 40 -55 56 -118 50 -200 -8 -111 -63 -186 -173 -237 -64 -30 -28 -32 49 -4 36 14 69 36 99 69 63 67 80 110 80 201 0 87 -19 135 -85 206 -41 44 -125 85 -171 83 -20 -1 -20 -2 -2 -6z"></path><path id="p1DmXNHm7C" d="M8754 11121 c-155 -97 -182 -341 -52 -468 44 -43 117 -82 153 -83 13 0 2 11 -31 30 -44 25 -92 72 -118 117 -4 7 -13 42 -21 78 -25 119 7 232 87 307 34 32 23 44 -18 19z"></path><path id="p5i5S3tCm" d="M9102 11123 c-10 -4 -2 -18 26 -47 82 -85 103 -237 49 -349 -28 -57 -82 -111 -140 -142 -32 -16 -32 -16 3 -11 93 16 184 99 212 195 19 65 14 159 -11 216 -35 78 -107 150 -139 138z"></path><path id="pQya0fajG" d="M11478 11096 c-22 -16 -23 -30 -3 -46 19 -16 21 -14 30 28 7 34 0 39 -27 18z"></path><path id="p98cnTpyj" d="M9994 10930 c60 -30 85 -59 102 -118 13 -44 14 -62 4 -100 -18 -75 -82 -129 -158 -133 -23 -2 -42 -7 -42 -12 0 -14 133 -1 167 16 60 32 93 96 93 182 0 62 -14 97 -57 137 -34 32 -73 48 -116 48 -32 -1 -32 -1 7 -20z"></path><path id="pxkgBhfKs" d="M6633 10848 c-30 -15 -29 -25 4 -31 35 -7 42 -2 36 23 -6 22 -9 23 -40 8z"></path><path id="p1469yLUSP" d="M10945 10846 c-29 -12 -29 -13 -9 -24 24 -13 47 -1 42 21 -2 13 -7 13 -33 3z"></path><path id="pJxdUm3m8" d="M14160 10849 c0 -5 -4 -8 -9 -4 -20 12 -22 -18 -2 -36 28 -26 31 -24 31 16 0 19 -4 35 -10 35 -5 0 -10 -5 -10 -11z"></path><path id="ptKyDE1PM" d="M11880 10675 c-15 -18 -6 -45 14 -45 22 0 38 34 24 48 -16 16 -23 15 -38 -3z"></path><path id="pl8E2cnPY" d="M14251 10598 c-1 -12 -9 -18 -26 -18 -14 0 -25 -4 -25 -10 0 -5 11 -10 25 -10 26 0 41 19 32 42 -4 8 -6 6 -6 -4z"></path><path id="p11jdDaBB3" d="M11045 10590 c-3 -5 -19 -10 -36 -10 -16 0 -29 -4 -29 -10 0 -5 18 -10 40 -10 33 0 40 3 40 20 0 22 -5 26 -15 10z"></path><path id="p1E9q3Jpc2" d="M6698 10583 c-43 -7 -33 -23 13 -23 27 0 39 4 37 12 -5 14 -14 16 -50 11z"></path><path id="p1EDkO3lPM" d="M11405 10141 c-42 -18 -76 -65 -96 -134 -19 -59 -21 -83 -15 -166 20 -285 79 -585 172 -875 45 -139 113 -318 125 -331 12 -12 12 -45 0 -45 -6 0 -16 8 -23 18 -23 32 -151 127 -255 191 -218 132 -479 225 -579 206 -110 -20 -194 -119 -194 -228 0 -38 37 -191 59 -242 5 -11 15 -36 22 -55 20 -55 101 -208 153 -288 82 -126 202 -262 232 -262 28 0 65 24 70 47 6 24 -4 44 -123 233 -132 209 -303 556 -303 615 0 16 14 41 38 67 34 36 45 42 93 46 177 14 441 -109 669 -312 34 -31 68 -56 74 -56 6 0 16 -8 23 -19 6 -10 32 -31 57 -47 37 -23 50 -39 66 -81 67 -180 124 -311 207 -483 210 -432 211 -433 206 -468 -3 -18 -10 -35 -15 -38 -8 -5 -541 -7 -1179 -4 -87 0 -87 0 -127 68 -36 61 -172 301 -242 427 -34 61 -44 78 -160 280 -50 88 -110 194 -132 235 -22 41 -46 82 -53 90 -7 8 -37 58 -67 110 -207 358 -461 732 -573 843 -97 96 -115 136 -77 170 23 21 71 21 180 2 425 -75 963 -57 1346 46 169 45 196 56 175 70 -27 17 -76 10 -294 -41 -226 -54 -584 -65 -940 -30 -229 22 -370 48 -468 84 -37 15 -77 26 -88 26 -53 0 -119 -65 -119 -118 0 -31 23 -73 65 -119 19 -21 59 -75 87 -121 98 -154 280 -456 368 -607 47 -82 131 -226 185 -320 54 -93 115 -199 135 -235 116 -205 322 -567 330 -580 5 -8 26 -44 46 -79 20 -35 47 -80 60 -99 36 -52 32 -67 -17 -68 -43 0 -63 -18 -49 -43 5 -10 29 -16 71 -18 35 -2 69 -9 75 -16 6 -7 39 -61 74 -122 35 -60 87 -153 117 -205 30 -52 60 -102 67 -110 7 -8 60 -94 118 -190 58 -96 124 -204 146 -240 23 -36 55 -90 73 -120 17 -30 75 -118 127 -195 53 -77 117 -172 144 -212 59 -87 90 -110 125 -94 35 16 43 48 26 106 -18 60 -151 325 -174 345 -7 7 -80 127 -97 160 -7 14 -34 59 -62 100 -27 41 -84 134 -126 205 -42 72 -80 132 -85 135 -16 11 -249 424 -242 429 4 3 292 4 638 1 736 -6 670 5 747 -125 83 -144 92 -158 150 -244 31 -48 67 -97 80 -111 13 -14 54 -62 92 -108 57 -69 72 -82 90 -76 22 6 55 42 56 59 0 12 -34 65 -105 160 -120 162 -275 411 -275 442 0 10 50 13 244 13 247 0 578 13 740 30 94 10 122 23 110 55 -7 16 -16 17 -103 11 -53 -4 -154 -11 -226 -16 -71 -5 -274 -9 -450 -9 -289 -1 -324 1 -360 18 -39 18 -45 29 -222 377 -99 197 -211 429 -248 514 -37 85 -71 160 -75 165 -4 6 -10 19 -13 30 -3 11 -24 65 -47 120 -53 127 -174 491 -190 570 -6 33 -20 96 -31 141 -43 184 -72 532 -50 614 4 18 23 33 69 55 55 26 63 33 60 55 -3 22 -8 25 -48 27 -25 1 -54 -2 -65 -6z"></path><path id="p1ELzEw1Dx" d="M5382 9788 c-18 -13 -39 -41 -48 -64 -15 -38 -14 -44 1 -73 9 -18 31 -49 50 -70 62 -68 362 -554 540 -876 13 -22 53 -92 90 -155 84 -143 323 -558 360 -625 16 -27 60 -104 98 -170 38 -66 94 -165 125 -220 63 -113 252 -436 351 -599 36 -60 77 -128 91 -152 81 -139 308 -497 404 -639 158 -232 177 -255 207 -255 51 0 67 53 40 132 -21 61 -83 189 -127 260 -78 128 -260 422 -359 583 -62 99 -178 297 -260 440 -81 143 -164 289 -185 325 -44 77 -153 270 -200 355 -35 62 -235 409 -362 625 -40 69 -85 145 -99 170 -151 262 -384 596 -495 708 -71 72 -92 111 -78 150 13 36 51 39 212 13 231 -36 351 -44 621 -38 308 6 521 34 730 96 140 41 168 55 136 67 -20 8 -113 -7 -340 -54 -147 -31 -283 -42 -504 -42 -328 1 -700 47 -845 106 -74 30 -112 30 -154 2z"></path><path id="pdCGbY92w" d="M7351 9026 c-30 -17 -50 -53 -51 -92 0 -50 108 -331 153 -394 9 -13 17 -30 17 -37 0 -6 38 -79 85 -161 47 -83 85 -161 85 -174 0 -28 -17 -48 -40 -48 -49 0 -160 135 -160 196 0 18 -3 39 -6 48 -7 19 -35 21 -52 4 -10 -10 -30 6 -95 72 -45 47 -112 123 -149 170 -70 90 -226 247 -318 319 -51 40 -58 43 -103 38 -92 -8 -139 -87 -117 -193 53 -254 212 -537 360 -640 76 -53 145 -74 239 -74 85 0 124 15 169 64 46 50 85 49 155 -3 77 -57 111 -73 139 -62 37 14 51 37 45 71 -4 16 -69 159 -145 317 -76 158 -146 306 -154 328 -9 22 -23 58 -33 81 -9 22 -15 54 -13 70 3 28 5 29 50 27 62 -2 94 -21 373 -221 66 -47 150 -112 187 -145 69 -61 236 -187 276 -208 18 -10 25 -10 35 0 9 9 -8 31 -82 102 -100 96 -282 251 -366 311 -48 34 -337 213 -382 237 -29 15 -72 13 -102 -3z m-548 -175 c90 -61 262 -234 371 -375 56 -71 91 -114 149 -178 33 -38 57 -75 57 -88 0 -28 -51 -77 -91 -85 -84 -19 -248 74 -351 197 -67 81 -90 115 -151 224 -114 204 -133 261 -107 328 14 38 41 33 123 -23z"></path><path id="pdOG48Gc4" d="M12825 9026 c-33 -14 -55 -52 -55 -92 0 -77 173 -463 304 -678 38 -63 45 -106 21 -126 -48 -40 -179 96 -189 198 -6 59 -13 66 -44 46 -25 -17 -25 -17 -91 52 -36 38 -82 89 -101 112 -107 134 -338 367 -404 409 -55 36 -110 29 -158 -20 -46 -46 -53 -78 -33 -163 54 -239 152 -431 290 -570 88 -90 148 -121 255 -133 109 -12 153 0 208 55 55 57 96 60 156 11 23 -19 60 -44 83 -57 39 -21 45 -22 70 -9 35 17 43 28 43 56 0 23 -223 496 -248 526 -8 9 -12 17 -8 17 3 0 -3 18 -14 39 -25 50 -80 215 -80 241 0 17 7 20 39 20 46 0 113 -34 222 -111 42 -30 125 -88 184 -129 59 -41 137 -102 173 -135 104 -94 265 -213 290 -214 6 -1 12 7 12 17 0 18 -185 198 -295 288 -85 70 -260 191 -357 247 -51 30 -115 68 -142 85 -54 35 -84 39 -131 18z m-519 -200 c130 -98 271 -245 384 -403 35 -48 85 -111 112 -140 57 -62 61 -90 18 -127 -44 -37 -86 -41 -158 -17 -103 33 -243 151 -329 276 -24 35 -163 287 -181 328 -7 15 -12 52 -12 80 0 101 34 101 166 3z"></path><path id="pn2MqakOa" d="M11140 7788 c-20 -7 -50 -66 -50 -100 0 -31 45 -68 83 -68 52 0 96 19 111 49 19 36 9 87 -21 106 -27 18 -92 25 -123 13z"></path><path id="pzsipaxqt" d="M14071 7035 c-17 -19 -35 -35 -40 -35 -12 0 -39 -42 -47 -74 -5 -21 0 -32 20 -53 25 -25 30 -26 69 -16 23 6 59 8 79 6 21 -3 49 -2 63 1 22 6 25 12 25 54 0 46 -3 51 -56 100 -31 29 -62 52 -69 52 -7 0 -27 -16 -44 -35z"></path></g></g><g id="l5AjcHBG3qrZ3zad7pqB9g2" fill="rgb(152,71,254)" style="transform: none;"><g style="transform: none;"><path id="pTqET9dCf" d="M5893 11135 c-10 -10 -9 -16 2 -25 13 -10 15 -8 15 14 0 30 -1 30 -17 11z"></path><path id="p7pcLcizw" d="M9463 7543 c-16 -3 -26 -16 -34 -42 -10 -32 -8 -43 9 -78 27 -52 143 -169 317 -320 188 -163 342 -314 399 -393 58 -80 203 -374 245 -495 57 -169 84 -300 79 -395 -4 -74 -10 -96 -45 -166 -21 -44 -48 -93 -59 -108 -52 -76 -150 -155 -248 -199 -148 -68 -345 -10 -498 145 -54 55 -79 92 -132 197 -36 72 -72 147 -80 168 -76 208 -79 218 -78 288 1 89 -3 102 -38 120 -44 23 -67 18 -103 -19 -52 -53 -94 -144 -138 -293 -55 -189 -120 -324 -209 -433 -20 -25 -46 -61 -58 -80 -30 -48 -79 -93 -130 -119 -34 -18 -52 -20 -95 -15 -58 7 -137 37 -180 68 -31 23 -89 105 -124 176 -25 49 -31 152 -14 220 33 129 185 396 258 453 13 10 30 31 37 45 8 15 33 45 55 67 23 22 58 62 79 89 20 28 46 60 57 72 27 29 65 106 65 132 0 30 -40 69 -77 76 -27 4 -38 0 -59 -22 -37 -39 -132 -166 -146 -196 -6 -14 -15 -26 -19 -26 -4 0 -11 -10 -15 -22 -4 -13 -15 -29 -25 -36 -11 -7 -19 -18 -19 -23 0 -5 -20 -40 -45 -77 -98 -144 -148 -226 -205 -332 -80 -149 -104 -215 -104 -290 0 -75 18 -158 47 -215 46 -92 169 -245 196 -245 5 0 16 -6 23 -13 7 -7 29 -20 48 -29 102 -47 218 -51 318 -11 87 34 118 59 183 144 130 170 198 277 274 427 31 63 59 112 61 109 2 -2 16 -37 30 -78 14 -41 32 -88 40 -106 7 -17 14 -34 14 -38 0 -4 24 -44 54 -89 57 -85 213 -250 246 -261 11 -4 20 -10 20 -15 0 -13 165 -89 222 -103 68 -15 182 -14 244 3 59 16 191 80 242 117 45 33 142 129 142 141 0 4 8 17 18 28 29 31 78 123 108 204 26 70 28 84 28 230 0 155 0 155 -41 265 -98 265 -237 541 -329 654 -7 9 -43 54 -80 101 -37 47 -95 114 -128 150 -34 36 -93 101 -132 144 -89 102 -167 181 -230 231 -27 22 -55 48 -62 58 -18 24 -106 67 -134 66 -13 -1 -33 -4 -45 -6z"></path></g></g></svg>